# xmcd CD database file
#
# Track frame offsets:
#	150
#	17172
#	31897
#	53850
#	68550
#	81167
#	86375
#	103207
#	117910
#	131362
#	143847
#	157977
#	169115
#
# Disc length: 2323 seconds
#
# Revision: 1
# Processed by: cddbd v1.5.2PL0 Copyright (c) Steve Scherf et al.
# Submitted via: CDex 1.75
#
DISCID=a009110d
DTITLE=The Handsome Family - Singing Bones
DYEAR=2003
DGENRE=Country
TTITLE0=The Forgotten Lake
TTITLE1=Gail With the Golden Hair
TTITLE2=24-Hour Store
TTITLE3=The Botomless Hole
TTITLE4=Far From Any Road
TTITLE5=If The World Should End In Fire
TTITLE6=A Shadow Underneath
TTITLE7=Dry Bones
TTITLE8=Fallen Peaches
TTITLE9=Whitehaven
TTITLE10=Sleepy
TTITLE11=The Song of a Hundred Toads
TTITLE12=If The World Should End In Ice
EXTD=YEAR: 2003
EXTT0=
EXTT1=
EXTT2=
EXTT3=
EXTT4=
EXTT5=
EXTT6=
EXTT7=
EXTT8=
EXTT9=
EXTT10=
EXTT11=
EXTT12=
PLAYORDER=
